# xmcd CD database file
#
# Track frame offsets:
#	150
#	21862
#	41370
#	60417
#
# Disc length: 1094 seconds
#
# Revision: 5
# Processed by: cddbd v1.5PL3 Copyright (c) Steve Scherf et al.
# Submitted via: CDex 1.50
#
DISCID=26044404
DTITLE=aiko - アンドロメダ
DYEAR=2003
DGENRE=Pop
TTITLE0=アンドロメダ
TTITLE1=どろぼう
TTITLE2=最後の夏休み
TTITLE3=アンドロメダ (Instrumental)
EXTD=YEAR: 2003
EXTT0=
EXTT1=
EXTT2=
EXTT3=
PLAYORDER=
